<svg xmlns="http://www.w3.org/2000/svg" version="1.1" xmlns:xlink="http://www.w3.org/1999/xlink" xmlns:svgjs="http://svgjs.com/svgjs" width="960" height="1000" preserveAspectRatio="none" viewBox="0 0 960 1000"><g mask="url(&quot;#SvgjsMask1006&quot;)" fill="none"><rect width="960" height="1000" x="0" y="0" fill="rgba(229, 229, 229, 1)"></rect><path d="M 0,296 C 64,263.4 192,123.8 320,133 C 448,142.2 512,364.4 640,342 C 768,319.6 896,85.2 960,21L960 1000L0 1000z" fill="rgba(213, 213, 213, 1)"></path><path d="M 0,565 C 48,607 144,784.6 240,775 C 336,765.4 384,515.2 480,517 C 576,518.8 624,749.4 720,784 C 816,818.6 912,708.8 960,690L960 1000L0 1000z" fill="rgba(185, 185, 185, 1)"></path></g><defs><mask id="SvgjsMask1006"><rect width="960" height="1000" fill="#ffffff"></rect></mask></defs></svg>